# xmcd CD database file
#
# Track frame offsets:
#	150
#	18428
#	35714
#	56168
#	66729
#	77693
#	91231
#	115890
#	124914
#	147662
#	163340
#	183581
#	192701
#	229036
#
# Disc length: 3175 seconds
#
# Revision: 0
# Processed by: cddbd v1.5.2PL0 Copyright (c) Steve Scherf et al.
# Submitted via: CDex 1.51
#
DISCID=d90c650e
DTITLE=Joe Negri - Mass of Hope
DYEAR=2000
DGENRE=Jazz
TTITLE0=Prelude (Entrance Song)
TTITLE1=I will go to the altar of God
TTITLE2=Kyrie
TTITLE3=Gloria
TTITLE4=Their message goes out to all the earth
TTITLE5=Alleluia
TTITLE6=Lord, to whom shall we go
TTITLE7=Melancholia (offertory)
TTITLE8=Credo (profession of faith)
TTITLE9=Sanctus (Holy, holy, holy)
TTITLE10=Our Father
TTITLE11=Lamb of God
TTITLE12=Peace be with You
TTITLE13=Postlude
EXTD=YEAR: 2000
EXTT0=
EXTT1=
EXTT2=
EXTT3=
EXTT4=
EXTT5=
EXTT6=
EXTT7=
EXTT8=
EXTT9=
EXTT10=
EXTT11=
EXTT12=
EXTT13=
PLAYORDER=
